# xmcd
#
# Track frame offsets: 
#        150
#        29077
#        43946
#        71193
#        92093
#        112817
#        130194
#        150111
#        179041
#        202900
#        230257
#        252457
#        278461
#        313448
#
# Disc length: 4378 seconds
#
# Revision: 0
# Processed by: cddbd v1.5.1PL0 Copyright (c) Steve Scherf et al.
# Submitted via: ExactAudioCopy v0.95a5
#
DISCID=c511180e
DTITLE=Eric Clapton - Rainbow Concert
DYEAR=1900
DGENRE=Blues
TTITLE0=layla
TTITLE1=Badge
TTITLE2=Blues power
TTITLE3=Roll It Over
TTITLE4=Little Wing
TTITLE5=Bottle Of Red Wine
TTITLE6=After Midnight
TTITLE7=Bell Bottom Blues
TTITLE8=Presence of The Lord
TTITLE9=Tell The Truth
TTITLE10=Perly Queen
TTITLE11=Key To The highway
TTITLE12=Let It Rain
TTITLE13=Crossroads
EXTD=
EXTT0=
EXTT1=
EXTT2=
EXTT3=
EXTT4=
EXTT5=
EXTT6=
EXTT7=
EXTT8=
EXTT9=
EXTT10=
EXTT11=
EXTT12=
EXTT13=
PLAYORDER=
